<?xml version="1.0" standalone="no"?>
<!DOCTYPE svg PUBLIC "-//W3C//DTD SVG 20010904//EN"
 "http://www.w3.org/TR/2001/REC-SVG-20010904/DTD/svg10.dtd">
<svg version="1.0" xmlns="http://www.w3.org/2000/svg"
 width="266.000000pt" height="266.000000pt" viewBox="0 0 266.000000 266.000000"
 preserveAspectRatio="xMidYMid meet">
<metadata>
Created by potrace 1.11, written by Peter Selinger 2001-2013
</metadata>
<g transform="translate(0.000000,266.000000) scale(0.100000,-0.100000)"
fill="#000000" stroke="none">
<path d="M1024 2618 c-12 -5 -27 -21 -35 -34 -12 -23 -14 -23 -37 -8 -14 9
-35 14 -51 11 -15 -3 -34 1 -45 9 -11 8 -32 14 -46 14 -22 0 -31 -8 -45 -39
-20 -46 -15 -77 19 -114 23 -25 23 -26 5 -32 -36 -12 -52 -50 -46 -112 6 -61
-1 -82 -40 -125 -31 -33 -22 -51 23 -46 28 3 33 1 28 -11 -30 -73 -28 -123 7
-180 20 -33 20 -33 41 -15 21 19 21 19 15 -8 -4 -16 1 -52 13 -90 23 -75 25
-106 5 -132 -22 -28 -19 -36 13 -36 17 0 38 10 52 25 l24 25 14 -37 c24 -63
26 -102 7 -122 -21 -24 -7 -33 32 -22 49 14 71 30 97 68 l25 36 11 -29 c21
-53 23 -90 6 -122 -9 -17 -16 -33 -16 -37 0 -3 18 -5 40 -5 38 0 40 -1 30 -20
-14 -26 -58 -46 -133 -60 -64 -13 -123 -55 -133 -96 -4 -16 -21 -30 -49 -43
-24 -10 -53 -33 -65 -49 -19 -26 -25 -29 -41 -19 -14 9 -26 8 -51 -2 -18 -8
-52 -16 -75 -18 -35 -4 -46 -1 -67 21 -38 37 -34 71 9 92 21 10 44 32 57 57
13 23 35 48 51 57 24 13 30 13 55 0 15 -9 33 -29 41 -44 12 -25 15 -27 23 -12
13 24 0 91 -22 111 -18 16 -18 18 6 52 32 47 34 139 4 174 l-19 24 -1 -46 c0
-53 -23 -79 -107 -122 l-53 -26 0 45 c0 102 -77 183 -161 169 -40 -7 -54 -25
-20 -25 27 0 61 -46 61 -82 l0 -30 -31 26 c-36 31 -59 33 -89 8 l-22 -18 32
-33 c33 -32 33 -32 27 -112 -4 -70 -3 -83 17 -111 17 -27 20 -41 15 -78 -8
-54 -2 -96 18 -129 17 -26 6 -40 -32 -41 l-20 -1 20 -15 c13 -10 33 -14 58
-11 61 8 123 -26 87 -48 -17 -11 -11 -25 10 -25 12 0 36 16 56 35 24 24 44 35
64 35 27 0 30 -3 30 -34 0 -18 -7 -39 -15 -46 -8 -6 -17 -22 -21 -33 -10 -34
-35 -57 -61 -57 -12 0 -23 -4 -23 -9 0 -16 58 -33 89 -26 45 10 41 -20 -4 -39
-19 -8 -35 -19 -35 -23 -1 -27 -17 -33 -53 -18 -19 8 -38 19 -42 25 -3 5 -22
10 -42 10 -28 0 -33 -3 -24 -13 13 -16 5 -27 -20 -27 -31 0 -61 -50 -55 -90
13 -85 12 -115 -6 -128 -12 -9 -18 -26 -18 -54 l0 -42 29 28 30 29 6 -29 c3
-16 15 -46 25 -66 11 -20 20 -52 20 -70 0 -18 4 -40 10 -48 9 -15 8 -17 25 36
8 24 27 12 55 -37 16 -27 42 -53 68 -67 23 -13 42 -29 42 -36 0 -17 50 -62 78
-71 15 -4 32 -1 48 10 22 14 25 14 30 0 4 -8 4 -29 2 -45 -3 -17 -1 -30 3 -30
14 0 58 65 72 104 l13 37 27 -21 c18 -15 27 -31 27 -51 0 -16 4 -29 9 -29 14
0 53 119 46 140 -7 23 13 28 33 8 6 -6 15 -9 18 -5 9 9 -25 47 -42 47 -7 0
-15 9 -19 20 -21 66 -129 93 -178 45 l-25 -26 -53 24 c-62 28 -77 48 -89 123
-5 29 -20 70 -34 90 -23 34 -24 39 -11 64 13 25 37 39 91 55 21 5 21 3 17 -62
-4 -58 -1 -73 18 -103 14 -22 24 -29 25 -20 2 8 5 31 8 51 4 20 22 54 41 77
20 22 42 58 50 79 l15 38 -6 -50 c-3 -30 -17 -70 -35 -98 -16 -27 -29 -60 -29
-73 0 -47 42 -104 78 -104 5 0 7 24 5 53 -4 46 -1 58 29 102 30 45 33 57 33
125 1 42 7 85 14 98 18 33 22 24 11 -23 -6 -26 -6 -59 1 -92 9 -44 7 -64 -11
-127 -19 -70 -20 -78 -5 -112 8 -20 23 -43 33 -50 25 -20 76 -17 103 6 20 16
21 19 7 20 -26 0 -58 36 -58 64 0 13 10 45 21 71 22 49 22 59 3 192 -5 35 -1
51 24 95 17 29 34 76 38 106 3 28 8 52 11 52 2 0 18 -6 36 -14 43 -18 85 -68
93 -113 9 -45 -6 -69 -40 -66 -49 3 -28 -61 27 -80 22 -8 22 -50 1 -72 -11
-11 -25 -14 -45 -10 -32 7 -35 0 -18 -39 12 -25 63 -56 93 -56 11 0 16 -9 16
-28 0 -37 23 -68 60 -81 l31 -10 -6 33 c-5 22 -2 36 8 45 13 10 19 5 37 -36
11 -26 35 -62 52 -80 16 -17 27 -36 23 -43 -4 -6 1 -23 11 -37 l17 -27 8 23
c14 36 41 21 69 -36 14 -28 33 -60 43 -70 9 -11 17 -29 17 -40 0 -21 29 -53
49 -53 6 0 11 6 10 13 -4 33 2 37 54 37 28 0 58 4 66 9 10 6 22 5 35 -5 11 -8
37 -14 58 -14 20 0 40 -4 43 -10 14 -22 23 -8 14 22 -5 18 -9 34 -9 35 0 2 12
3 28 3 15 0 38 7 50 16 13 9 31 13 43 9 23 -8 20 3 -7 35 -11 13 -10 24 4 63
9 26 23 47 29 47 19 0 16 18 -4 24 -10 3 -39 8 -65 12 -53 7 -56 10 -30 30 15
12 8 13 -46 14 -59 0 -66 -3 -93 -31 -24 -26 -33 -30 -60 -24 -17 4 -51 1 -76
-6 -42 -11 -47 -11 -59 6 -18 24 -20 105 -2 87 7 -7 27 -12 45 -12 33 0 33 0
27 42 -7 59 7 100 39 116 41 20 60 56 53 97 -8 40 -17 44 -31 13 -6 -15 -19
-23 -34 -23 -19 0 -27 8 -38 39 -19 56 -57 101 -108 132 -25 14 -45 32 -45 40
0 27 -39 91 -74 122 -58 50 -124 84 -201 103 -88 21 -145 40 -145 50 0 20 103
96 151 112 83 26 115 50 134 101 15 40 19 43 36 33 12 -7 16 -19 13 -33 -6
-25 20 -94 35 -94 6 0 11 14 11 30 0 17 4 30 8 30 18 0 42 -38 42 -66 0 -16 9
-40 20 -54 19 -24 20 -24 20 -4 0 11 3 24 7 28 11 11 73 -56 73 -80 0 -13 11
-36 25 -51 l24 -28 1 27 c0 26 1 27 33 16 17 -6 46 -23 62 -39 41 -38 80 -51
132 -43 36 5 43 4 43 -10 0 -17 15 -22 24 -8 8 14 10 96 2 114 -7 15 -3 18 27
18 23 0 37 6 41 17 6 14 8 14 21 -3 14 -18 14 -18 15 2 0 12 -7 35 -15 50 -8
16 -15 39 -15 52 0 21 3 23 33 17 31 -7 32 -7 14 12 -9 11 -44 28 -76 39 -33
10 -57 22 -55 26 3 5 -15 8 -40 8 -35 0 -51 -5 -66 -22 -56 -61 -50 -58 -81
-42 -32 16 -56 53 -42 63 12 7 33 46 33 60 0 6 -12 8 -28 5 -26 -5 -32 -1 -55
39 -24 41 -36 49 -108 79 -89 36 -133 77 -123 115 6 20 6 20 30 -2 38 -35 87
-55 138 -55 37 0 52 6 78 30 l33 29 -35 2 -35 1 44 10 c30 7 47 6 54 -1 16
-16 49 -13 77 6 l24 17 -24 6 c-18 5 -24 12 -22 26 2 10 7 43 11 72 9 68 40
103 73 83 61 -38 156 -31 200 16 25 27 19 40 -11 23 -19 -10 -21 -8 -23 25 -1
19 -2 43 -2 52 -1 15 6 17 36 15 33 -3 38 0 44 23 6 25 7 25 30 10 30 -20 33
-19 27 5 -3 12 -25 37 -49 57 -34 27 -44 42 -44 65 0 24 6 32 30 41 43 16 37
30 -12 25 -27 -3 -51 1 -66 10 -15 10 -35 12 -62 8 -48 -7 -58 6 -25 32 47 37
21 43 -60 14 -71 -26 -99 -69 -90 -140 l7 -53 -60 -58 c-33 -32 -62 -69 -65
-82 -3 -18 -5 -15 -6 11 -2 38 -23 71 -58 89 -31 16 -32 15 -26 -23 4 -26 0
-39 -16 -55 -31 -31 -71 -26 -180 21 -105 45 -134 48 -293 33 -89 -8 -118 -1
-118 30 0 20 97 27 131 9 22 -11 34 -12 49 -4 23 12 26 30 6 30 -22 0 -28 17
-21 59 l6 38 75 -23 c163 -52 230 -22 249 111 3 28 16 60 26 71 l20 21 -27 6
c-36 7 -87 -9 -109 -33 -10 -11 -30 -44 -44 -72 -32 -63 -58 -74 -134 -58
l-53 11 10 52 c6 29 16 57 22 62 12 11 44 104 44 128 0 19 -112 67 -154 67
-25 0 -35 5 -39 20 -5 18 -13 20 -94 19 -48 0 -98 -5 -109 -11z m141 -57 c-3
-5 -1 -12 4 -16 15 -9 1 -35 -18 -35 -30 0 -43 21 -24 42 16 18 49 26 38 9z
m94 -176 c23 -11 30 -23 33 -54 3 -38 3 -39 -27 -34 -16 2 -49 -2 -72 -11 -40
-14 -42 -14 -48 5 -9 26 3 76 22 94 18 19 56 19 92 0z m34 -146 c-10 -37 -88
-53 -117 -23 -32 31 -16 41 71 43 47 1 51 -1 46 -20z"/>
<path d="M503 2388 c-53 -55 -66 -114 -37 -169 19 -38 11 -49 -17 -23 -32 28
-40 59 -30 107 14 61 5 58 -25 -8 -34 -74 -41 -130 -21 -178 9 -20 12 -37 8
-37 -20 0 -36 37 -42 94 -5 61 -5 61 -19 31 -18 -41 -25 -156 -11 -198 19 -58
63 -109 180 -211 127 -112 148 -149 137 -238 l-7 -52 21 19 c55 49 72 134 51
244 -7 33 -4 61 10 112 10 38 19 80 19 94 0 48 -31 99 -105 175 -82 85 -91
109 -82 211 3 32 4 59 3 59 -1 0 -16 -15 -33 -32z"/>
</g>
</svg>
