<?xml version="1.0" encoding="utf-8"?>
<!-- Generator: Adobe Illustrator 16.0.0, SVG Export Plug-In . SVG Version: 6.00 Build 0)  -->
<!DOCTYPE svg PUBLIC "-//W3C//DTD SVG 1.1//EN" "http://www.w3.org/Graphics/SVG/1.1/DTD/svg11.dtd">
<svg version="1.1" id="Layer_1" xmlns="http://www.w3.org/2000/svg" xmlns:xlink="http://www.w3.org/1999/xlink" x="0px" y="0px"
	 width="24px" height="24px" viewBox="0 0 24 24" enable-background="new 0 0 24 24" xml:space="preserve">
<path fill="#838285" d="M13.671,15.139c0.038,0.039,0.114,0.096,0.171,0.096h1.013c0.057,0,0.133-0.057,0.171-0.096l0.267-0.286
	c0.04-0.038,0.059-0.077,0.059-0.114l0.287-0.974c0.019-0.095,0-0.19-0.059-0.248l-0.209-0.171c-0.038-0.039-0.114-0.02-0.172-0.02
	h-0.916l-0.058-0.057c-0.039,0-0.076-0.02-0.115,0.019l-0.363,0.229c-0.038,0-0.058,0.096-0.076,0.134l-0.306,0.935
	c-0.038,0.095-0.02,0.209,0.057,0.286L13.671,15.139L13.671,15.139z M13.823,20.18l-0.077,0.019h-0.229l1.375-4.028
	c0.038-0.133-0.019-0.287-0.152-0.325l-0.077-0.019h-2.31c-0.096,0.019-0.172,0.095-0.19,0.19l-0.134,0.477
	c-0.038,0.133,0.058,0.249,0.19,0.287l0.058-0.019h0.344l-1.394,3.989c-0.038,0.134,0.02,0.306,0.152,0.364l0.076,0.058h2.139
	c0.114,0,0.21-0.096,0.249-0.21l0.133-0.458C14.034,20.371,13.958,20.218,13.823,20.18L13.823,20.18L13.823,20.18z M23.963,16.419
	l-0.364-0.478v-0.019c-0.057-0.058-0.114-0.114-0.19-0.114h-1.375c-0.076,0-0.133,0.076-0.19,0.114L21.46,16.38h-0.591l-0.401-0.458
	v-0.019c-0.038-0.058-0.115-0.096-0.19-0.096h-0.765l3.857-3.856l-4.315-4.277l3.857-3.97V1.985l-0.535-0.687h-7.808l-0.631,0.667
	V2.52L11.78,0.344L10.31,1.775L9.852,1.298H2.139L1.527,2.004V3.8L2.1,4.353h0.573v4.983L0,12.008l2.673,2.673v6.11l0.993,0.554
	H5.88l1.738-1.814l4.124,4.125l2.768-2.769c0.02,0.077,0.077,0.096,0.172,0.133l0.076-0.037h1.796c0.114,0,0.209-0.02,0.229-0.114
	l0.134-0.382c0.037-0.133-0.02-0.249-0.153-0.286l-0.076,0.019h-0.077l0.65-2.043l0.438-0.438h0.954l-0.954,3.036
	c-0.038,0.133,0.038,0.209,0.171,0.267l0.077-0.038h1.737c0.097,0,0.19-0.02,0.229-0.114l0.153-0.344
	c0.058-0.134-0.02-0.249-0.133-0.307c-0.021-0.019-0.059,0-0.097,0H19.76l0.803-2.48h1.163l-0.973,3.035
	c-0.039,0.134,0.037,0.21,0.171,0.249l0.077-0.058h1.909c0.096,0,0.19-0.019,0.229-0.114l0.152-0.381
	c0.059-0.133-0.019-0.248-0.152-0.286c-0.02-0.02-0.057,0.019-0.096,0.019H22.91l1.069-3.532c0.038-0.096,0.019-0.209-0.019-0.268
	l0,0L23.963,16.419z M11.78,0.706l2.158,2.158v0.898l0.648,0.782h0.306L9.356,9.891V4.544h0.63l0.516-0.802V2.043l-0.039-0.057
	L11.78,0.706L11.78,0.706z M0.363,12.008l2.31-2.31v4.62L0.363,12.008z M7.79,19.322L18.94,7.866l4.086,4.104l-3.857,3.856h-0.02
	c-0.058,0.02-0.095,0.058-0.133,0.096l-0.4,0.458h-0.555l-0.418-0.458c-0.04-0.057-0.116-0.114-0.191-0.114h-1.681
	c-0.113,0-0.209,0.077-0.247,0.191l-0.152,0.478c-0.039,0.134,0.019,0.248,0.152,0.306h0.287l-1.223,3.609l-2.884,2.902l-3.913-3.97
	L7.79,19.322z"/>
</svg>
